<?xml version="1.0" encoding="UTF-8"?>
<svg xmlns="http://www.w3.org/2000/svg" xmlns:xlink="http://www.w3.org/1999/xlink" viewBox="0 0 100 100" width="100px" height="100px">
<g id="surface52629">
<path style=" stroke:none;fill-rule:nonzero;fill:rgb(94.509804%,73.725492%,9.803922%);fill-opacity:1;" d="M 79 14 C 79 14.550781 78.550781 15 78 15 C 77.449219 15 77 14.550781 77 14 C 77 13.449219 77.449219 13 78 13 C 78.550781 13 79 13.449219 79 14 Z M 79 14 "/>
<path style=" stroke:none;fill-rule:nonzero;fill:rgb(97.647059%,85.882354%,82.352942%);fill-opacity:1;" d="M 88 50 C 88 70.988281 70.988281 88 50 88 C 29.011719 88 12 70.988281 12 50 C 12 29.011719 29.011719 12 50 12 C 70.988281 12 88 29.011719 88 50 Z M 88 50 "/>
<path style=" stroke:none;fill-rule:nonzero;fill:rgb(94.509804%,73.725492%,9.803922%);fill-opacity:1;" d="M 88 16 C 88 18.210938 86.210938 20 84 20 C 81.789062 20 80 18.210938 80 16 C 80 13.789062 81.789062 12 84 12 C 86.210938 12 88 13.789062 88 16 Z M 88 16 "/>
<path style=" stroke:none;fill-rule:nonzero;fill:rgb(93.333334%,24.313726%,32.941177%);fill-opacity:1;" d="M 16 26 C 16 27.105469 15.105469 28 14 28 C 12.894531 28 12 27.105469 12 26 C 12 24.894531 12.894531 24 14 24 C 15.105469 24 16 24.894531 16 26 Z M 16 26 "/>
<path style=" stroke:none;fill-rule:nonzero;fill:rgb(98.431373%,80.392158%,34.901962%);fill-opacity:1;" d="M 80 77 C 80 78.105469 79.105469 79 78 79 C 76.894531 79 76 78.105469 76 77 C 76 75.894531 76.894531 75 78 75 C 79.105469 75 80 75.894531 80 77 Z M 80 77 "/>
<path style=" stroke:none;fill-rule:nonzero;fill:rgb(98.431373%,80.392158%,34.901962%);fill-opacity:1;" d="M 21 78 C 21 80.210938 19.210938 82 17 82 C 14.789062 82 13 80.210938 13 78 C 13 75.789062 14.789062 74 17 74 C 19.210938 74 21 75.789062 21 78 Z M 21 78 "/>
<path style=" stroke:none;fill-rule:nonzero;fill:rgb(93.333334%,24.313726%,32.941177%);fill-opacity:1;" d="M 26 83 C 26 84.105469 25.105469 85 24 85 C 22.894531 85 22 84.105469 22 83 C 22 81.894531 22.894531 81 24 81 C 25.105469 81 26 81.894531 26 83 Z M 26 83 "/>
<path style=" stroke:none;fill-rule:nonzero;fill:rgb(100%,100%,100%);fill-opacity:1;" d="M 68.964844 78.515625 C 68.964844 79.886719 67.855469 81 66.484375 81 C 65.113281 81 64 79.886719 64 78.515625 C 64 77.144531 65.113281 76.035156 66.484375 76.035156 C 67.855469 76.035156 68.964844 77.144531 68.964844 78.515625 Z M 68.964844 78.515625 "/>
<path style=" stroke:none;fill-rule:nonzero;fill:rgb(100%,100%,100%);fill-opacity:1;" d="M 17 48 C 17 48.550781 16.550781 49 16 49 C 15.449219 49 15 48.550781 15 48 C 15 47.449219 15.449219 47 16 47 C 16.550781 47 17 47.449219 17 48 Z M 17 48 "/>
<path style=" stroke:none;fill-rule:nonzero;fill:rgb(94.509804%,73.725492%,9.803922%);fill-opacity:1;" d="M 87 31 C 87 31.550781 86.550781 32 86 32 C 85.449219 32 85 31.550781 85 31 C 85 30.449219 85.449219 30 86 30 C 86.550781 30 87 30.449219 87 31 Z M 87 31 "/>
<path style=" stroke:none;fill-rule:nonzero;fill:rgb(100%,100%,100%);fill-opacity:1;" d="M 82 66 C 82 67.105469 81.105469 68 80 68 C 78.894531 68 78 67.105469 78 66 C 78 64.894531 78.894531 64 80 64 C 81.105469 64 82 64.894531 82 66 Z M 82 66 "/>
<path style=" stroke:none;fill-rule:nonzero;fill:rgb(93.333334%,24.313726%,32.941177%);fill-opacity:1;" d="M 49.164062 74.300781 C 40.847656 74.300781 33.664062 69.441406 30.410156 61.621094 C 26.78125 52.894531 28.976562 42.996094 36.136719 35.796875 C 36.265625 35.664062 36.414062 35.640625 36.511719 35.640625 C 36.757812 35.640625 37.027344 35.804688 37.074219 36.117188 C 37.378906 38.226562 38.109375 41.238281 39.863281 43.597656 L 40.128906 43.953125 L 40.5625 43.863281 C 49.1875 42.128906 52.824219 30.882812 52.132812 23.429688 C 52.113281 23.226562 52.195312 23.089844 52.269531 23.011719 C 52.375 22.894531 52.527344 22.828125 52.679688 22.828125 C 52.777344 22.828125 52.875 22.855469 52.964844 22.910156 C 58.476562 26.21875 71.300781 35.5625 71.300781 50.894531 C 71.300781 73.644531 51.429688 74.300781 49.164062 74.300781 Z M 49.164062 74.300781 "/>
<path style=" stroke:none;fill-rule:nonzero;fill:rgb(27.843139%,16.862746%,16.078432%);fill-opacity:1;" d="M 52.855469 23.660156 C 58.394531 27.035156 70.601562 36.148438 70.601562 50.894531 C 70.601562 72.964844 51.359375 73.601562 49.164062 73.601562 C 41.136719 73.601562 34.199219 68.90625 31.058594 61.355469 C 28.324219 54.777344 28.316406 44.824219 36.421875 36.503906 C 36.761719 38.675781 37.539062 41.644531 39.300781 44.015625 L 39.828125 44.726562 L 40.699219 44.550781 C 49.613281 42.753906 53.445312 31.371094 52.855469 23.660156 M 36.632812 36.289062 L 36.636719 36.289062 L 36.632812 36.289062 M 52.679688 22.128906 C 51.988281 22.128906 51.363281 22.714844 51.4375 23.496094 C 52.054688 30.164062 48.8125 41.488281 40.425781 43.179688 C 38.757812 40.9375 38.058594 38.046875 37.765625 36.015625 C 37.671875 35.351562 37.097656 34.9375 36.511719 34.9375 C 36.203125 34.9375 35.890625 35.054688 35.640625 35.304688 C 20.132812 50.898438 30.046875 75 49.164062 75 C 55.121094 75 72 72.105469 72 50.894531 C 72 35.15625 58.828125 25.613281 53.324219 22.308594 C 53.113281 22.183594 52.894531 22.128906 52.679688 22.128906 Z M 52.679688 22.128906 "/>
<path style=" stroke:none;fill-rule:nonzero;fill:rgb(27.843139%,16.862746%,16.078432%);fill-opacity:1;" d="M 67.609375 47.160156 C 67.375 47.160156 67.164062 46.992188 67.121094 46.753906 C 66.515625 43.511719 65.1875 40.378906 63.171875 37.4375 C 63.015625 37.210938 63.074219 36.898438 63.300781 36.742188 C 63.53125 36.589844 63.839844 36.644531 63.996094 36.871094 C 66.09375 39.925781 67.476562 43.1875 68.101562 46.570312 C 68.152344 46.839844 67.972656 47.101562 67.703125 47.152344 C 67.671875 47.15625 67.640625 47.160156 67.609375 47.160156 Z M 67.609375 47.160156 "/>
<path style=" stroke:none;fill-rule:nonzero;fill:rgb(27.843139%,16.862746%,16.078432%);fill-opacity:1;" d="M 41.5 48 C 41.269531 48 41.0625 47.839844 41.011719 47.605469 C 40.953125 47.335938 41.125 47.070312 41.394531 47.011719 C 43.429688 46.574219 45.285156 45.839844 46.90625 44.828125 C 47.136719 44.679688 47.445312 44.753906 47.59375 44.988281 C 47.738281 45.222656 47.667969 45.53125 47.433594 45.675781 C 45.714844 46.746094 43.753906 47.527344 41.605469 47.988281 C 41.570312 47.996094 41.535156 48 41.5 48 Z M 41.5 48 "/>
<path style=" stroke:none;fill-rule:nonzero;fill:rgb(27.843139%,16.862746%,16.078432%);fill-opacity:1;" d="M 50.039062 43.457031 C 49.914062 43.457031 49.785156 43.410156 49.6875 43.3125 C 49.492188 43.117188 49.492188 42.800781 49.6875 42.605469 C 55.035156 37.214844 55.203125 29.1875 55.203125 29.109375 C 55.207031 28.921875 55.316406 28.75 55.484375 28.667969 C 55.652344 28.582031 55.851562 28.601562 56.003906 28.714844 C 57.949219 30.167969 59.71875 31.757812 61.261719 33.441406 C 61.445312 33.648438 61.433594 33.964844 61.230469 34.148438 C 61.023438 34.335938 60.707031 34.320312 60.523438 34.117188 C 59.222656 32.695312 57.753906 31.34375 56.148438 30.085938 C 55.941406 32.464844 54.964844 38.710938 50.398438 43.3125 C 50.296875 43.410156 50.167969 43.457031 50.039062 43.457031 Z M 50.039062 43.457031 "/>
<path style=" stroke:none;fill-rule:nonzero;fill:rgb(27.843139%,16.862746%,16.078432%);fill-opacity:1;" d="M 32.378906 57.023438 C 32.144531 57.023438 31.9375 56.859375 31.886719 56.621094 C 30.867188 51.5 31.871094 46.167969 34.714844 41.601562 C 34.859375 41.371094 35.171875 41.296875 35.402344 41.441406 C 35.636719 41.589844 35.710938 41.898438 35.5625 42.132812 C 32.855469 46.480469 31.898438 51.554688 32.867188 56.425781 C 32.921875 56.695312 32.746094 56.960938 32.476562 57.015625 C 32.441406 57.019531 32.410156 57.023438 32.378906 57.023438 Z M 32.378906 57.023438 "/>
<path style=" stroke:none;fill-rule:nonzero;fill:rgb(27.843139%,16.862746%,16.078432%);fill-opacity:1;" d="M 49.316406 71.5 C 42.941406 71.5 37.234375 68.121094 34.042969 62.460938 C 33.589844 61.65625 33.1875 60.808594 32.851562 59.9375 C 32.75 59.679688 32.878906 59.390625 33.136719 59.289062 C 33.394531 59.1875 33.683594 59.316406 33.785156 59.574219 C 34.105469 60.402344 34.484375 61.207031 34.914062 61.96875 C 37.96875 67.390625 43.21875 70.5 49.316406 70.5 C 51.175781 70.5 67.5 69.949219 67.5 50.910156 C 67.5 50.636719 67.722656 50.410156 68 50.410156 C 68.277344 50.410156 68.5 50.636719 68.5 50.910156 C 68.5 70.921875 51.277344 71.5 49.316406 71.5 Z M 49.316406 71.5 "/>
</g>
</svg>
